<svg width="54" height="54" viewBox="0 0 54 54" fill="none" xmlns="http://www.w3.org/2000/svg">
<g id="add-button">
<g id="Group 4">
<g id="Ellipse 47" filter="url(#filter0_d_160_747)">
<circle cx="27" cy="26" r="25" fill="url(#paint0_linear_160_747)"/>
</g>
<path id="Union" fill-rule="evenodd" clip-rule="evenodd" d="M27.6 14.8888C27.6 14.5574 27.3314 14.2888 27 14.2888C26.6686 14.2888 26.4 14.5574 26.4 14.8888V25.4H15.8887C15.5573 25.4 15.2887 25.6686 15.2887 26C15.2887 26.3314 15.5573 26.6 15.8887 26.6H26.4V37.111C26.4 37.4424 26.6686 37.711 27 37.711C27.3314 37.711 27.6 37.4424 27.6 37.111V26.6H38.1109C38.4423 26.6 38.7109 26.3314 38.7109 26C38.7109 25.6686 38.4423 25.4 38.1109 25.4H27.6V14.8888Z" fill="#EFEFEF"/>
</g>
</g>
<defs>
<filter id="filter0_d_160_747" x="0" y="0" width="54" height="54" filterUnits="userSpaceOnUse" color-interpolation-filters="sRGB">
<feFlood flood-opacity="0" result="BackgroundImageFix"/>
<feColorMatrix in="SourceAlpha" type="matrix" values="0 0 0 0 0 0 0 0 0 0 0 0 0 0 0 0 0 0 127 0" result="hardAlpha"/>
<feOffset dy="1"/>
<feGaussianBlur stdDeviation="1"/>
<feComposite in2="hardAlpha" operator="out"/>
<feColorMatrix type="matrix" values="0 0 0 0 0 0 0 0 0 0 0 0 0 0 0 0 0 0 0.25 0"/>
<feBlend mode="normal" in2="BackgroundImageFix" result="effect1_dropShadow_160_747"/>
<feBlend mode="normal" in="SourceGraphic" in2="effect1_dropShadow_160_747" result="shape"/>
</filter>
<linearGradient id="paint0_linear_160_747" x1="2" y1="26" x2="52" y2="26" gradientUnits="userSpaceOnUse">
<stop stop-color="#723EDE"/>
<stop offset="1" stop-color="#6833C9"/>
</linearGradient>
</defs>
</svg>
