<svg width="30" height="30" viewBox="0 0 30 30" fill="none" xmlns="http://www.w3.org/2000/svg">
<g filter="url(#filter0_d_109_276)">
<circle cx="15" cy="14" r="12" fill="#3292C9"/>
<circle cx="15" cy="14" r="12" stroke="#EFEFEF"/>
</g>
<path fill-rule="evenodd" clip-rule="evenodd" d="M15.6 8.66667C15.6 8.33529 15.3314 8.06667 15 8.06667C14.6686 8.06667 14.4 8.33529 14.4 8.66667V13.4H9.66659C9.33522 13.4 9.06659 13.6686 9.06659 14C9.06659 14.3314 9.33522 14.6 9.66659 14.6H14.4V19.3333C14.4 19.6647 14.6686 19.9333 15 19.9333C15.3314 19.9333 15.6 19.6647 15.6 19.3333V14.6H20.3333C20.6646 14.6 20.9333 14.3314 20.9333 14C20.9333 13.6686 20.6646 13.4 20.3333 13.4H15.6V8.66667Z" fill="#EFEFEF"/>
<defs>
<filter id="filter0_d_109_276" x="0.5" y="0.5" width="29" height="29" filterUnits="userSpaceOnUse" color-interpolation-filters="sRGB">
<feFlood flood-opacity="0" result="BackgroundImageFix"/>
<feColorMatrix in="SourceAlpha" type="matrix" values="0 0 0 0 0 0 0 0 0 0 0 0 0 0 0 0 0 0 127 0" result="hardAlpha"/>
<feOffset dy="1"/>
<feGaussianBlur stdDeviation="1"/>
<feComposite in2="hardAlpha" operator="out"/>
<feColorMatrix type="matrix" values="0 0 0 0 0 0 0 0 0 0 0 0 0 0 0 0 0 0 0.25 0"/>
<feBlend mode="normal" in2="BackgroundImageFix" result="effect1_dropShadow_109_276"/>
<feBlend mode="normal" in="SourceGraphic" in2="effect1_dropShadow_109_276" result="shape"/>
</filter>
</defs>
</svg>
