<svg width="233" height="174" viewBox="0 0 233 174" fill="none" xmlns="http://www.w3.org/2000/svg">
<path d="M182.669 0.0099918C180.147 -0.054113 177.69 0.192689 175.419 0.679886C169.973 1.86262 165.161 4.61592 161.566 8.20579C153.967 15.8054 152.18 22.2159 151.994 31.1938C151.859 38.1876 156.219 44.1461 162.053 46.8193C165.194 48.1911 169.671 48.0533 172.693 46.5725C174.213 45.8193 175.349 44.7872 175.981 43.566C176.635 42.332 176.869 40.8287 176.305 38.7581L170.688 17.8407C169.819 14.5554 172.728 14.1002 173.427 16.2221L180.478 37.6587C181.264 40.5787 180.978 43.3352 179.827 45.5564C178.688 47.7584 176.786 49.3611 174.614 50.4284C170.284 52.5663 164.809 52.749 160.312 50.7778C156.584 49.1591 153.046 46.3033 150.74 42.4474C143.991 77.3043 129.108 78.1409 108.076 95.8691C111.716 110.53 110.427 119.306 109.092 126.572C107.655 134.467 106.536 141.06 110.776 156.682C117.727 159.705 123.071 165.849 123.071 173.978L153.175 173.997C152.61 167.602 148.196 161.461 142.721 161.176C141.149 161.076 140.181 159.14 140.899 157.506L150.689 135.268C152.578 130.995 152.446 126.95 151.038 123.248C149.633 119.543 146.763 116.434 143.526 114.2C140.216 111.895 142.237 107.709 145.563 109.69C149.739 112.197 153.165 116.283 155.035 121.197C156.892 126.12 157.04 132.015 154.567 137.592L145.746 157.586C147.366 158.073 148.889 158.907 150.291 159.993C158.493 157.509 163.657 153.932 167.112 149.223L171.824 174H200.525C199.922 167.657 195.566 161.679 190.184 161.679C189.18 161.679 188.295 160.878 188.064 159.743C185.96 149.778 184.468 141.079 184.468 129.457C184.468 127.091 187.108 126.854 187.361 128.825C188.644 138.925 189.215 147.858 192.121 157.557C200.073 157.692 204.432 165.782 204.9 173.997H219.502C219.502 165.019 213.555 157.689 205.988 157.022C193.491 111.847 202.832 113.315 197.918 66.1757C197.382 61.0345 199.675 56.5087 205.372 53.7554L220.858 46.2616C231.03 41.8512 231.8 35.476 232.284 29.8155C232.848 23.2384 229.596 19.8825 224.784 19.8825C211.553 19.8825 211.098 17.5811 205.539 11.1867C198.636 3.26651 190.251 0.211922 182.669 0.0099918Z" fill="#EAE6DE"/>
<path d="M93.4934 29.3134C91.8514 29.1982 90.1776 30.2991 89.4011 32.8623L86.3207 43.0483C76.5927 48.6965 71.7494 60.2297 75.0303 70.5308C84.3669 99.7319 52.7707 103.649 38.8517 127.134C33.0187 136.981 31.0808 146.498 35.189 157.283C33.617 161.916 30.0847 162.918 26.8039 162.4C25.0632 162.134 23.6885 161.302 22.9598 160.332C22.231 159.369 21.7664 158.252 22.3615 155.75L29.1746 126.747C30.8994 119.432 26.6034 112.663 21.2541 109.831C18.5842 108.414 15.6025 107.601 12.5858 107.547C9.56903 107.495 6.51729 108.231 3.70103 109.863C-3.14072 113.649 2.75274 123.896 9.41946 119.851C10.8578 119.016 13.9573 119 15.9303 120.033C17.9032 121.083 18.581 121.665 18.0178 124.097L11.1888 153.081C9.94453 158.399 11.0519 163.648 13.8523 167.334C16.6399 170.998 20.764 173.098 25.0059 173.779C29.7952 174.531 38.2185 173.315 45.1748 170.182C48.8057 172.726 52.9457 173.997 57.3563 173.997H74.047C73.5696 168.733 69.7542 163.696 65.0318 163.462C63.673 163.382 62.8424 161.782 63.4566 160.435L74.9412 142.146C76.9969 138.866 76.4495 135.298 75.2403 132.264C74.0311 129.214 71.6476 126.494 68.7613 124.814C65.1654 122.715 67.8671 119.134 70.502 121.115C73.8147 123.614 77.0669 126.53 78.6707 130.578C80.2809 134.616 81.0255 139.8 78.2729 144.05L67.6316 160.499C73.0032 162.048 77.3437 167.632 77.7924 174H101.312C100.8 168.787 97.0352 163.865 92.3765 163.865C91.5173 163.865 90.7536 163.216 90.5594 162.265C88.7519 154.063 87.4568 146.917 87.4568 137.365C87.4568 135.016 89.7257 134.898 89.958 136.847C90.9509 145.164 91.5491 152.498 94.0694 160.48C100.927 160.582 104.676 167.248 105.086 173.997H117.701C117.701 166.614 112.545 160.582 106.031 160.031C95.6764 124.011 112.329 127.013 101.325 91.4596C100.195 87.0786 100.03 83.6769 105.054 82.9409C115.858 81.3248 123.384 78.7967 125.637 70.0252C126.964 64.6586 125.471 62.857 121.923 61.0105C119.438 59.7241 117.812 56.6744 116.437 54.9431C116.106 54.2775 115.775 53.5767 115.479 52.7926C113.57 47.8613 111.317 45.4932 107.953 44.2259L107.142 36.6449C106.649 31.8959 101.92 31.3455 100.065 36.1457L98.7886 39.5122L97.2644 33.1568C96.7075 30.7983 95.1386 29.4446 93.4934 29.3134Z" fill="#EAE6DE"/>
</svg>
