<svg width="313" height="288" viewBox="0 0 313 288" fill="none" xmlns="http://www.w3.org/2000/svg">
<path d="M8.04991 281.581V221.981H30.9299C35.0366 221.981 38.6632 222.701 41.8099 224.141C45.0099 225.581 47.5166 227.714 49.3299 230.541C51.1432 233.367 52.0499 236.861 52.0499 241.021C52.0499 245.074 51.1166 248.514 49.2499 251.341C47.4366 254.167 44.9299 256.327 41.7299 257.821C38.5832 259.261 34.9832 259.981 30.9299 259.981H20.4499V281.581H8.04991ZM20.4499 249.181H31.0099C32.7699 249.181 34.2899 248.834 35.5699 248.141C36.8499 247.447 37.8366 246.487 38.5299 245.261C39.2766 244.034 39.6499 242.621 39.6499 241.021C39.6499 239.367 39.2766 237.927 38.5299 236.701C37.8366 235.474 36.8499 234.514 35.5699 233.821C34.2899 233.127 32.7699 232.781 31.0099 232.781H20.4499V249.181ZM74.6005 282.541C69.9605 282.541 65.9339 281.527 62.5205 279.501C59.1072 277.421 56.4672 274.647 54.6005 271.181C52.7339 267.714 51.8005 263.874 51.8005 259.661C51.8005 255.287 52.7605 251.394 54.6805 247.981C56.6539 244.567 59.2939 241.874 62.6005 239.901C65.9072 237.927 69.6405 236.941 73.8005 236.941C77.2672 236.941 80.3339 237.501 83.0005 238.621C85.6672 239.687 87.9072 241.207 89.7205 243.181C91.5872 245.154 93.0005 247.447 93.9605 250.061C94.9205 252.621 95.4005 255.421 95.4005 258.461C95.4005 259.314 95.3472 260.167 95.2405 261.021C95.1872 261.821 95.0539 262.514 94.8405 263.101H62.1205V254.301H88.0405L82.3605 258.461C82.8939 256.167 82.8672 254.141 82.2805 252.381C81.6939 250.567 80.6539 249.154 79.1605 248.141C77.7205 247.074 75.9339 246.541 73.8005 246.541C71.7205 246.541 69.9339 247.047 68.4405 248.061C66.9472 249.074 65.8272 250.567 65.0805 252.541C64.3339 254.514 64.0405 256.914 64.2005 259.741C63.9872 262.194 64.2805 264.354 65.0805 266.221C65.8805 268.087 67.1072 269.554 68.7605 270.621C70.4139 271.634 72.4139 272.141 74.7605 272.141C76.8939 272.141 78.7072 271.714 80.2005 270.861C81.7472 270.007 82.9472 268.834 83.8005 267.341L93.4005 271.901C92.5472 274.034 91.1872 275.901 89.3205 277.501C87.5072 279.101 85.3472 280.354 82.8405 281.261C80.3339 282.114 77.5872 282.541 74.6005 282.541ZM119.507 282.061C114.227 282.061 110.12 280.647 107.187 277.821C104.307 274.941 102.867 270.941 102.867 265.821V248.301H95.5068V237.901H95.9068C98.1468 237.901 99.8535 237.341 101.027 236.221C102.253 235.101 102.867 233.421 102.867 231.181V227.981H114.867V237.901H125.107V248.301H114.867V265.021C114.867 266.514 115.133 267.767 115.667 268.781C116.2 269.741 117.027 270.461 118.147 270.941C119.267 271.421 120.653 271.661 122.307 271.661C122.68 271.661 123.107 271.634 123.587 271.581C124.067 271.527 124.573 271.474 125.107 271.421V281.581C124.307 281.687 123.4 281.794 122.387 281.901C121.373 282.007 120.413 282.061 119.507 282.061ZM128.139 281.581V237.901H140.139V281.581H128.139ZM128.139 233.981V221.981H140.139V233.981H128.139ZM144.92 281.581V237.901H156.12V246.541L155.48 244.621C156.493 242.007 158.12 240.087 160.36 238.861C162.653 237.581 165.32 236.941 168.36 236.941C171.667 236.941 174.547 237.634 177 239.021C179.507 240.407 181.453 242.354 182.84 244.861C184.227 247.314 184.92 250.194 184.92 253.501V281.581H172.92V256.061C172.92 254.354 172.573 252.887 171.88 251.661C171.24 250.434 170.307 249.474 169.08 248.781C167.907 248.087 166.52 247.741 164.92 247.741C163.373 247.741 161.987 248.087 160.76 248.781C159.533 249.474 158.573 250.434 157.88 251.661C157.24 252.887 156.92 254.354 156.92 256.061V281.581H144.92ZM209.371 282.541C205.104 282.541 201.291 281.527 197.931 279.501C194.571 277.474 191.904 274.727 189.931 271.261C188.011 267.794 187.051 263.954 187.051 259.741C187.051 255.474 188.037 251.634 190.011 248.221C191.984 244.754 194.651 242.007 198.011 239.981C201.371 237.954 205.131 236.941 209.291 236.941C212.491 236.941 215.317 237.554 217.771 238.781C220.277 239.954 222.251 241.634 223.691 243.821L221.851 246.221V221.021H233.851V281.581H222.651V273.581L223.771 276.061C222.277 278.194 220.251 279.821 217.691 280.941C215.131 282.007 212.357 282.541 209.371 282.541ZM210.811 271.741C212.997 271.741 214.917 271.234 216.571 270.221C218.224 269.207 219.504 267.794 220.411 265.981C221.371 264.167 221.851 262.087 221.851 259.741C221.851 257.394 221.371 255.314 220.411 253.501C219.504 251.687 218.224 250.274 216.571 249.261C214.917 248.247 212.997 247.741 210.811 247.741C208.624 247.741 206.651 248.274 204.891 249.341C203.184 250.354 201.851 251.767 200.891 253.581C199.931 255.341 199.451 257.394 199.451 259.741C199.451 262.087 199.931 264.167 200.891 265.981C201.851 267.794 203.184 269.207 204.891 270.221C206.651 271.234 208.624 271.741 210.811 271.741ZM259.679 282.541C255.039 282.541 251.012 281.527 247.599 279.501C244.185 277.421 241.545 274.647 239.679 271.181C237.812 267.714 236.879 263.874 236.879 259.661C236.879 255.287 237.839 251.394 239.759 247.981C241.732 244.567 244.372 241.874 247.679 239.901C250.985 237.927 254.719 236.941 258.879 236.941C262.345 236.941 265.412 237.501 268.079 238.621C270.745 239.687 272.985 241.207 274.799 243.181C276.665 245.154 278.079 247.447 279.039 250.061C279.999 252.621 280.479 255.421 280.479 258.461C280.479 259.314 280.425 260.167 280.319 261.021C280.265 261.821 280.132 262.514 279.919 263.101H247.199V254.301H273.119L267.439 258.461C267.972 256.167 267.945 254.141 267.359 252.381C266.772 250.567 265.732 249.154 264.239 248.141C262.799 247.074 261.012 246.541 258.879 246.541C256.799 246.541 255.012 247.047 253.519 248.061C252.025 249.074 250.905 250.567 250.159 252.541C249.412 254.514 249.119 256.914 249.279 259.741C249.065 262.194 249.359 264.354 250.159 266.221C250.959 268.087 252.185 269.554 253.839 270.621C255.492 271.634 257.492 272.141 259.839 272.141C261.972 272.141 263.785 271.714 265.279 270.861C266.825 270.007 268.025 268.834 268.879 267.341L278.479 271.901C277.625 274.034 276.265 275.901 274.399 277.501C272.585 279.101 270.425 280.354 267.919 281.261C265.412 282.114 262.665 282.541 259.679 282.541ZM283.545 281.581V237.901H294.745V248.381L293.945 246.861C294.905 243.181 296.478 240.701 298.665 239.421C300.905 238.087 303.545 237.421 306.585 237.421H309.145V247.821H305.385C302.452 247.821 300.078 248.727 298.265 250.541C296.452 252.301 295.545 254.807 295.545 258.061V281.581H283.545Z" fill="#5A5A5A"/>
<rect x="59.6128" width="193.548" height="185.551" rx="29" fill="#723EDE"/>
<path d="M141.065 148.658C157.88 147.336 169.991 132.67 169.726 115.998L169.626 109.472L176.253 109.57C193.168 109.848 208.079 97.9061 209.421 81.3478C210.945 62.3588 195.554 46.1267 176.618 45.8168L111.459 44.789C107.251 44.7238 103.888 48.0354 103.954 52.1791L104.998 116.34C105.296 135.003 121.78 150.159 141.065 148.658Z" fill="white"/>
</svg>
