<svg width="313" height="288" viewBox="0 0 313 288" fill="none" xmlns="http://www.w3.org/2000/svg">
<path d="M6.01589 277.581V225.431H16.5159L36.0459 251.331H31.1459L50.1159 225.431H60.6159V277.581H49.7659V237.401L54.1059 238.381L34.0159 264.281H32.6159L13.2259 238.381L16.8659 237.401V277.581H6.01589ZM77.4235 278.421C74.6702 278.421 72.2902 277.977 70.2835 277.091C68.2769 276.204 66.7369 274.944 65.6635 273.311C64.5902 271.631 64.0535 269.647 64.0535 267.361C64.0535 265.214 64.5435 263.324 65.5235 261.691C66.5035 260.011 67.9969 258.611 70.0035 257.491C72.0569 256.371 74.6002 255.577 77.6335 255.111L89.3235 253.221V260.921L79.5235 262.671C78.0302 262.951 76.8869 263.441 76.0935 264.141C75.3002 264.794 74.9035 265.751 74.9035 267.011C74.9035 268.177 75.3469 269.087 76.2335 269.741C77.1202 270.394 78.2169 270.721 79.5235 270.721C81.2502 270.721 82.7669 270.347 84.0735 269.601C85.3802 268.854 86.3835 267.851 87.0835 266.591C87.8302 265.284 88.2035 263.861 88.2035 262.321V252.381C88.2035 250.934 87.6202 249.721 86.4535 248.741C85.3335 247.761 83.7935 247.271 81.8335 247.271C79.9669 247.271 78.3102 247.784 76.8635 248.811C75.4635 249.837 74.4369 251.191 73.7835 252.871L65.3835 248.881C66.1302 246.734 67.3202 244.891 68.9535 243.351C70.5869 241.811 72.5469 240.621 74.8335 239.781C77.1202 238.941 79.6169 238.521 82.3235 238.521C85.5435 238.521 88.3902 239.104 90.8635 240.271C93.3369 241.437 95.2502 243.071 96.6035 245.171C98.0035 247.224 98.7035 249.627 98.7035 252.381V277.581H88.9035V271.421L91.2835 271.001C90.1635 272.681 88.9269 274.081 87.5735 275.201C86.2202 276.274 84.7035 277.067 83.0235 277.581C81.3435 278.141 79.4769 278.421 77.4235 278.421ZM120.63 278.001C116.01 278.001 112.417 276.764 109.85 274.291C107.33 271.771 106.07 268.271 106.07 263.791V248.461H99.6305V239.361H99.9805C101.94 239.361 103.434 238.871 104.46 237.891C105.534 236.911 106.07 235.441 106.07 233.481V230.681H116.571V239.361H125.53V248.461H116.571V263.091C116.571 264.397 116.804 265.494 117.27 266.381C117.737 267.221 118.46 267.851 119.441 268.271C120.421 268.691 121.634 268.901 123.08 268.901C123.407 268.901 123.78 268.877 124.2 268.831C124.621 268.784 125.064 268.737 125.53 268.691V277.581C124.831 277.674 124.037 277.767 123.15 277.861C122.264 277.954 121.424 278.001 120.63 278.001ZM146.943 278.421C143.117 278.421 139.663 277.557 136.583 275.831C133.55 274.057 131.123 271.654 129.303 268.621C127.53 265.587 126.643 262.181 126.643 258.401C126.643 254.621 127.53 251.237 129.303 248.251C131.077 245.217 133.503 242.837 136.583 241.111C139.663 239.384 143.117 238.521 146.943 238.521C149.79 238.521 152.427 239.011 154.853 239.991C157.28 240.971 159.357 242.347 161.083 244.121C162.81 245.847 164.047 247.901 164.793 250.281L155.693 254.201C155.04 252.287 153.92 250.771 152.333 249.651C150.793 248.531 148.997 247.971 146.943 247.971C145.123 247.971 143.49 248.414 142.043 249.301C140.643 250.187 139.523 251.424 138.683 253.011C137.89 254.597 137.493 256.417 137.493 258.471C137.493 260.524 137.89 262.344 138.683 263.931C139.523 265.517 140.643 266.754 142.043 267.641C143.49 268.527 145.123 268.971 146.943 268.971C149.043 268.971 150.863 268.411 152.403 267.291C153.943 266.171 155.04 264.654 155.693 262.741L164.793 266.731C164.093 268.971 162.88 270.977 161.153 272.751C159.427 274.524 157.35 275.924 154.923 276.951C152.497 277.931 149.837 278.421 146.943 278.421ZM167.476 277.581V224.591H177.976V246.921L176.716 245.241C177.603 242.954 179.026 241.274 180.986 240.201C182.993 239.081 185.326 238.521 187.986 238.521C190.88 238.521 193.4 239.127 195.546 240.341C197.74 241.554 199.443 243.257 200.656 245.451C201.87 247.597 202.476 250.117 202.476 253.011V277.581H191.976V255.251C191.976 253.757 191.673 252.474 191.066 251.401C190.506 250.327 189.69 249.487 188.616 248.881C187.59 248.274 186.376 247.971 184.976 247.971C183.623 247.971 182.41 248.274 181.336 248.881C180.263 249.487 179.423 250.327 178.816 251.401C178.256 252.474 177.976 253.757 177.976 255.251V277.581H167.476ZM206.651 277.581V225.431H226.671C230.264 225.431 233.437 226.061 236.191 227.321C238.991 228.581 241.184 230.447 242.771 232.921C244.357 235.394 245.151 238.451 245.151 242.091C245.151 245.637 244.334 248.647 242.701 251.121C241.114 253.594 238.921 255.484 236.121 256.791C233.367 258.051 230.217 258.681 226.671 258.681H217.501V277.581H206.651ZM217.501 249.231H226.741C228.281 249.231 229.611 248.927 230.731 248.321C231.851 247.714 232.714 246.874 233.321 245.801C233.974 244.727 234.301 243.491 234.301 242.091C234.301 240.644 233.974 239.384 233.321 238.311C232.714 237.237 231.851 236.397 230.731 235.791C229.611 235.184 228.281 234.881 226.741 234.881H217.501V249.231ZM264.882 278.421C260.822 278.421 257.299 277.534 254.312 275.761C251.326 273.941 249.016 271.514 247.382 268.481C245.749 265.447 244.932 262.087 244.932 258.401C244.932 254.574 245.772 251.167 247.452 248.181C249.179 245.194 251.489 242.837 254.382 241.111C257.276 239.384 260.542 238.521 264.182 238.521C267.216 238.521 269.899 239.011 272.232 239.991C274.566 240.924 276.526 242.254 278.112 243.981C279.746 245.707 280.982 247.714 281.822 250.001C282.662 252.241 283.082 254.691 283.082 257.351C283.082 258.097 283.036 258.844 282.942 259.591C282.896 260.291 282.779 260.897 282.592 261.411H253.962V253.711H276.642L271.672 257.351C272.139 255.344 272.116 253.571 271.602 252.031C271.089 250.444 270.179 249.207 268.872 248.321C267.612 247.387 266.049 246.921 264.182 246.921C262.362 246.921 260.799 247.364 259.492 248.251C258.186 249.137 257.206 250.444 256.552 252.171C255.899 253.897 255.642 255.997 255.782 258.471C255.596 260.617 255.852 262.507 256.552 264.141C257.252 265.774 258.326 267.057 259.772 267.991C261.219 268.877 262.969 269.321 265.022 269.321C266.889 269.321 268.476 268.947 269.782 268.201C271.136 267.454 272.186 266.427 272.932 265.121L281.332 269.111C280.586 270.977 279.396 272.611 277.762 274.011C276.176 275.411 274.286 276.507 272.092 277.301C269.899 278.047 267.496 278.421 264.882 278.421ZM304.175 278.001C299.555 278.001 295.962 276.764 293.395 274.291C290.875 271.771 289.615 268.271 289.615 263.791V248.461H283.175V239.361H283.525C285.485 239.361 286.979 238.871 288.005 237.891C289.079 236.911 289.615 235.441 289.615 233.481V230.681H300.115V239.361H309.075V248.461H300.115V263.091C300.115 264.397 300.349 265.494 300.815 266.381C301.282 267.221 302.005 267.851 302.985 268.271C303.965 268.691 305.179 268.901 306.625 268.901C306.952 268.901 307.325 268.877 307.745 268.831C308.165 268.784 308.609 268.737 309.075 268.691V277.581C308.375 277.674 307.582 277.767 306.695 277.861C305.809 277.954 304.969 278.001 304.175 278.001Z" fill="#5A5A5A"/>
<rect x="59.6128" width="193.548" height="185.551" rx="29" fill="#723EDE"/>
<path d="M141.065 148.658C157.88 147.336 169.991 132.67 169.726 115.998L169.626 109.472L176.253 109.57C193.168 109.848 208.079 97.9061 209.421 81.3478C210.945 62.3588 195.554 46.1267 176.618 45.8168L111.459 44.789C107.251 44.7238 103.888 48.0354 103.954 52.1791L104.998 116.34C105.296 135.003 121.78 150.159 141.065 148.658Z" fill="white"/>
</svg>
