<svg width="130" height="24" viewBox="0 0 130 24" fill="none" xmlns="http://www.w3.org/2000/svg">
<path d="M0.0551953 23V0.649998H4.5552L12.9252 11.75H10.8252L18.9552 0.649998H23.4552V23H18.8052V5.78L20.6652 6.2L12.0552 17.3H11.4552L3.1452 6.2L4.7052 5.78V23H0.0551953ZM30.6585 23.36C29.4785 23.36 28.4585 23.17 27.5985 22.79C26.7385 22.41 26.0785 21.87 25.6185 21.17C25.1585 20.45 24.9285 19.6 24.9285 18.62C24.9285 17.7 25.1385 16.89 25.5585 16.19C25.9785 15.47 26.6185 14.87 27.4785 14.39C28.3585 13.91 29.4485 13.57 30.7485 13.37L35.7585 12.56V15.86L31.5585 16.61C30.9185 16.73 30.4285 16.94 30.0885 17.24C29.7485 17.52 29.5785 17.93 29.5785 18.47C29.5785 18.97 29.7685 19.36 30.1485 19.64C30.5285 19.92 30.9985 20.06 31.5585 20.06C32.2985 20.06 32.9485 19.9 33.5085 19.58C34.0685 19.26 34.4985 18.83 34.7985 18.29C35.1185 17.73 35.2785 17.12 35.2785 16.46V12.2C35.2785 11.58 35.0285 11.06 34.5285 10.64C34.0485 10.22 33.3885 10.01 32.5485 10.01C31.7485 10.01 31.0385 10.23 30.4185 10.67C29.8185 11.11 29.3785 11.69 29.0985 12.41L25.4985 10.7C25.8185 9.78 26.3285 8.99 27.0285 8.33C27.7285 7.67 28.5685 7.16 29.5485 6.8C30.5285 6.44 31.5985 6.26 32.7585 6.26C34.1385 6.26 35.3585 6.51 36.4185 7.01C37.4785 7.51 38.2985 8.21 38.8785 9.11C39.4785 9.99 39.7785 11.02 39.7785 12.2V23H35.5785V20.36L36.5985 20.18C36.1185 20.9 35.5885 21.5 35.0085 21.98C34.4285 22.44 33.7785 22.78 33.0585 23C32.3385 23.24 31.5385 23.36 30.6585 23.36ZM49.1757 23.18C47.1957 23.18 45.6557 22.65 44.5557 21.59C43.4757 20.51 42.9357 19.01 42.9357 17.09V10.52H40.1757V6.62H40.3257C41.1657 6.62 41.8057 6.41 42.2457 5.99C42.7057 5.57 42.9357 4.94 42.9357 4.1V2.9H47.4357V6.62H51.2757V10.52H47.4357V16.79C47.4357 17.35 47.5357 17.82 47.7357 18.2C47.9357 18.56 48.2457 18.83 48.6657 19.01C49.0857 19.19 49.6057 19.28 50.2257 19.28C50.3657 19.28 50.5257 19.27 50.7057 19.25C50.8857 19.23 51.0757 19.21 51.2757 19.19V23C50.9757 23.04 50.6357 23.08 50.2557 23.12C49.8757 23.16 49.5157 23.18 49.1757 23.18ZM60.4527 23.36C58.8127 23.36 57.3327 22.99 56.0127 22.25C54.7127 21.49 53.6727 20.46 52.8927 19.16C52.1327 17.86 51.7527 16.4 51.7527 14.78C51.7527 13.16 52.1327 11.71 52.8927 10.43C53.6527 9.13 54.6927 8.11 56.0127 7.37C57.3327 6.63 58.8127 6.26 60.4527 6.26C61.6727 6.26 62.8027 6.47 63.8427 6.89C64.8827 7.31 65.7727 7.9 66.5127 8.66C67.2527 9.4 67.7827 10.28 68.1027 11.3L64.2027 12.98C63.9227 12.16 63.4427 11.51 62.7627 11.03C62.1027 10.55 61.3327 10.31 60.4527 10.31C59.6727 10.31 58.9727 10.5 58.3527 10.88C57.7527 11.26 57.2727 11.79 56.9127 12.47C56.5727 13.15 56.4027 13.93 56.4027 14.81C56.4027 15.69 56.5727 16.47 56.9127 17.15C57.2727 17.83 57.7527 18.36 58.3527 18.74C58.9727 19.12 59.6727 19.31 60.4527 19.31C61.3527 19.31 62.1327 19.07 62.7927 18.59C63.4527 18.11 63.9227 17.46 64.2027 16.64L68.1027 18.35C67.8027 19.31 67.2827 20.17 66.5427 20.93C65.8027 21.69 64.9127 22.29 63.8727 22.73C62.8327 23.15 61.6927 23.36 60.4527 23.36ZM69.2525 23V0.289999H73.7525V9.86L73.2125 9.14C73.5925 8.16 74.2025 7.44 75.0425 6.98C75.9025 6.5 76.9025 6.26 78.0425 6.26C79.2825 6.26 80.3625 6.52 81.2825 7.04C82.2225 7.56 82.9525 8.29 83.4725 9.23C83.9925 10.15 84.2525 11.23 84.2525 12.47V23H79.7525V13.43C79.7525 12.79 79.6225 12.24 79.3625 11.78C79.1225 11.32 78.7725 10.96 78.3125 10.7C77.8725 10.44 77.3525 10.31 76.7525 10.31C76.1725 10.31 75.6525 10.44 75.1925 10.7C74.7325 10.96 74.3725 11.32 74.1125 11.78C73.8725 12.24 73.7525 12.79 73.7525 13.43V23H69.2525ZM86.0415 23V0.649998H94.6215C96.1615 0.649998 97.5215 0.919998 98.7015 1.46C99.9015 2 100.842 2.8 101.522 3.86C102.202 4.92 102.542 6.23 102.542 7.79C102.542 9.31 102.192 10.6 101.492 11.66C100.812 12.72 99.8715 13.53 98.6715 14.09C97.4915 14.63 96.1415 14.9 94.6215 14.9H90.6915V23H86.0415ZM90.6915 10.85H94.6515C95.3115 10.85 95.8815 10.72 96.3615 10.46C96.8415 10.2 97.2115 9.84 97.4715 9.38C97.7515 8.92 97.8915 8.39 97.8915 7.79C97.8915 7.17 97.7515 6.63 97.4715 6.17C97.2115 5.71 96.8415 5.35 96.3615 5.09C95.8815 4.83 95.3115 4.7 94.6515 4.7H90.6915V10.85ZM110.998 23.36C109.258 23.36 107.748 22.98 106.468 22.22C105.188 21.44 104.198 20.4 103.498 19.1C102.798 17.8 102.448 16.36 102.448 14.78C102.448 13.14 102.808 11.68 103.528 10.4C104.268 9.12 105.258 8.11 106.498 7.37C107.738 6.63 109.138 6.26 110.698 6.26C111.998 6.26 113.148 6.47 114.148 6.89C115.148 7.29 115.988 7.86 116.668 8.6C117.368 9.34 117.898 10.2 118.258 11.18C118.618 12.14 118.798 13.19 118.798 14.33C118.798 14.65 118.778 14.97 118.738 15.29C118.718 15.59 118.668 15.85 118.588 16.07H106.318V12.77H116.038L113.908 14.33C114.108 13.47 114.098 12.71 113.878 12.05C113.658 11.37 113.268 10.84 112.708 10.46C112.168 10.06 111.498 9.86 110.698 9.86C109.918 9.86 109.248 10.05 108.688 10.43C108.128 10.81 107.708 11.37 107.428 12.11C107.148 12.85 107.038 13.75 107.098 14.81C107.018 15.73 107.128 16.54 107.428 17.24C107.728 17.94 108.188 18.49 108.808 18.89C109.428 19.27 110.178 19.46 111.058 19.46C111.858 19.46 112.538 19.3 113.098 18.98C113.678 18.66 114.128 18.22 114.448 17.66L118.048 19.37C117.728 20.17 117.218 20.87 116.518 21.47C115.838 22.07 115.028 22.54 114.088 22.88C113.148 23.2 112.118 23.36 110.998 23.36ZM127.838 23.18C125.858 23.18 124.318 22.65 123.218 21.59C122.138 20.51 121.598 19.01 121.598 17.09V10.52H118.838V6.62H118.988C119.828 6.62 120.468 6.41 120.908 5.99C121.368 5.57 121.598 4.94 121.598 4.1V2.9H126.098V6.62H129.938V10.52H126.098V16.79C126.098 17.35 126.198 17.82 126.398 18.2C126.598 18.56 126.908 18.83 127.328 19.01C127.748 19.19 128.268 19.28 128.888 19.28C129.028 19.28 129.188 19.27 129.368 19.25C129.548 19.23 129.738 19.21 129.938 19.19V23C129.638 23.04 129.298 23.08 128.918 23.12C128.538 23.16 128.178 23.18 127.838 23.18Z" fill="#723EDE"/>
</svg>
